<?xml version="1.0" encoding="utf-8"?>
<!-- Generator: Adobe Illustrator 27.4.1, SVG Export Plug-In . SVG Version: 6.00 Build 0)  -->
<svg version="1.1" id="Layer_1" xmlns="http://www.w3.org/2000/svg" xmlns:xlink="http://www.w3.org/1999/xlink" x="0px" y="0px"
	 viewBox="0 0 32 32" style="enable-background:new 0 0 32 32;" xml:space="preserve">
<style type="text/css">
	.st0{fill:#6A00BD;}
	.st1{fill:#1C3E68;}
</style>
<g>
	<path class="st0" d="M21,16.3c0,4.7-3.7,6.6-8.1,6.8h-0.7l-2-3.8l2.9,0c2.2-0.1,3.6-1.3,3.6-3.2c0-2.2-1.9-3.1-4.4-3.1L11,13
		L5.4,30.5H1.2L7.9,9.1h5C17.8,9.3,21,12.1,21,16.3z"/>
	<path class="st1" d="M15.7,30.5H17c8,0,14.5-6.5,14.5-14.5S25,1.5,17,1.5l-16.5,0l2.1,4l13.7-0.1c5.8,0,10.5,4.7,10.5,10.5
		s-4.7,10.5-10.5,10.5h-2.7L15.7,30.5z"/>
</g>
</svg>
