<?xml version="1.0" encoding="utf-8"?>
<!-- Generator: Adobe Illustrator 27.5.0, SVG Export Plug-In . SVG Version: 6.00 Build 0)  -->
<svg version="1.1" id="Layer_1" xmlns="http://www.w3.org/2000/svg" xmlns:xlink="http://www.w3.org/1999/xlink" x="0px" y="0px"
	 viewBox="0 0 44 44" style="enable-background:new 0 0 44 44;" xml:space="preserve">
<path style="fill:#1C3E68;" d="M18.3,24.7c2.1-1,3.2-2.5,3.2-4.9c0-4.7-3.5-5.8-7.5-5.8H3v23.4h11.3c4.2,0,8.2-2,8.2-6.8
	C22.6,27.7,21.2,25.5,18.3,24.7z M8.1,18H13c1.9,0,3.5,0.5,3.5,2.7c0,2-1.3,2.8-3.1,2.8H8.1V18z M13.6,33.4H8.1V27h5.6
	c2.3,0,3.7,0.9,3.7,3.3C17.4,32.7,15.7,33.4,13.6,33.4z M37.3,17.5h-9.5v-2.3h9.5V17.5z M41,29.2c0-5-2.9-9.2-8.2-9.2
	c-5.2,0-8.7,3.9-8.7,9c0,5.3,3.3,8.9,8.7,8.9c4,0,6.7-1.8,7.9-5.7h-4.1c-0.4,1.4-2.3,2.2-3.7,2.2c-2.7,0-4.2-1.6-4.2-4.3H41
	C41,29.8,41,29.5,41,29.2z M28.8,27.1c0.2-2.2,1.6-3.6,3.9-3.6c2.3,0,3.5,1.4,3.7,3.6H28.8z"/>
</svg>
