<?xml version="1.0" encoding="UTF-8"?>
<svg id="Layer_1" data-name="Layer 1" xmlns="http://www.w3.org/2000/svg" viewBox="0 0 44 44">
  <defs>
    <style>
      .cls-1 {
        fill: #1c3e68;
	width:44px;
	height:44px;
      }
    </style>
  </defs>
  <path class="cls-1" d="m13.16,38h-6.63v-21.36h6.63v21.36Zm-3.32-24.28c-2.12,0-3.84-1.76-3.84-3.88,0-1.02.4-2,1.13-2.72s1.7-1.13,2.72-1.13,2,.4,2.72,1.13c.72.72,1.13,1.7,1.13,2.72,0,2.12-1.72,3.88-3.84,3.88Zm28.15,24.28h-6.62v-10.4c0-2.48-.05-5.66-3.45-5.66s-3.98,2.69-3.98,5.48v10.58h-6.63v-21.36h6.36v2.91h.09c.89-1.68,3.05-3.45,6.28-3.45,6.71,0,7.95,4.42,7.95,10.16v11.74h0Z"/>
</svg>