<?xml version="1.0" encoding="utf-8"?>
<!-- Generator: Adobe Illustrator 27.5.0, SVG Export Plug-In . SVG Version: 6.00 Build 0)  -->
<svg version="1.1" id="Layer_1" xmlns="http://www.w3.org/2000/svg" xmlns:xlink="http://www.w3.org/1999/xlink" x="0px" y="0px"
	 viewBox="0 0 44 44" style="enable-background:new 0 0 44 44;" xml:space="preserve">
<style type="text/css">
	.st0{fill:#1C3E68;}
</style>
<path class="st0" d="M13.2,38H6.5V16.6h6.6V38z M9.8,13.7C7.7,13.7,6,12,6,9.8c0-1,0.4-2,1.1-2.7S8.8,6,9.8,6c1,0,2,0.4,2.7,1.1
	c0.7,0.7,1.1,1.7,1.1,2.7C13.7,12,12,13.7,9.8,13.7z M38,38h-6.6V27.6c0-2.5,0-5.7-3.4-5.7c-3.4,0-4,2.7-4,5.5V38h-6.6V16.6h6.4v2.9
	h0.1c0.9-1.7,3-3.4,6.3-3.4c6.7,0,7.9,4.4,7.9,10.2L38,38L38,38z"/>
</svg>
